HIERARCHY
ROOT Hips
{
  OFFSET -190.384 73.7931 509.029
  CHANNELS 6 Xposition Yposition Zposition Zrotation Xrotation Yrotation
  JOINT Spine
  {
    OFFSET 0 8 0
    CHANNELS 6 Xposition Yposition Zposition Zrotation Xrotation Yrotation
    JOINT Spine1
    {
      OFFSET 0 8 0
      CHANNELS 6 Xposition Yposition Zposition Zrotation Xrotation Yrotation
      JOINT Spine2
      {
        OFFSET 0 8 0
        CHANNELS 6 Xposition Yposition Zposition Zrotation Xrotation Yrotation
        JOINT Spine3
        {
          OFFSET 0 8 0
          CHANNELS 6 Xposition Yposition Zposition Zrotation Xrotation Yrotation
          JOINT Neck
          {
            OFFSET 1.03713e-05 17 -1.54039e-05
            CHANNELS 6 Xposition Yposition Zposition Zrotation Xrotation Yrotation
            JOINT Head
            {
              OFFSET 0 10.8 1.59001e-05
              CHANNELS 6 Xposition Yposition Zposition Zrotation Xrotation Yrotation
              End Site
              {
                OFFSET 0 20.25 0
              }
            }
          }
          JOINT LeftShoulder
          {
            OFFSET 4.99999 17 0
            CHANNELS 6 Xposition Yposition Zposition Zrotation Xrotation Yrotation
            JOINT LeftShoulder2
            {
              OFFSET 6.45 0 0
              CHANNELS 6 Xposition Yposition Zposition Zrotation Xrotation Yrotation
              JOINT LeftArm
              {
                OFFSET 6.45001 0 1.13687e-05
                CHANNELS 6 Xposition Yposition Zposition Zrotation Xrotation Yrotation
                JOINT LeftForeArm
                {
                  OFFSET 0 -32.4 -2
                  CHANNELS 6 Xposition Yposition Zposition Zrotation Xrotation Yrotation
                  JOINT LeftHand
                  {
                    OFFSET -2.15211e-05 -25.65 1.99997
                    CHANNELS 6 Xposition Yposition Zposition Zrotation Xrotation Yrotation
                    JOINT LeftHandThumb1
                    {
                      OFFSET -0.499992 -1.50001 2.65001
                      CHANNELS 6 Xposition Yposition Zposition Zrotation Xrotation Yrotation
                      JOINT LeftHandThumb2
                      {
                        OFFSET 0 -3.80001 3.69998
                        CHANNELS 6 Xposition Yposition Zposition Zrotation Xrotation Yrotation
                        JOINT LeftHandThumb3
                        {
                          OFFSET 0 -2.99998 2.70001
                          CHANNELS 6 Xposition Yposition Zposition Zrotation Xrotation Yrotation
                          End Site
                          {
                            OFFSET 0 -2.30002 1.79999
                          }
                        }
                      }
                    }
                    JOINT LeftHandIndex
                    {
                      OFFSET 1.07731e-05 -1.9 1.6
                      CHANNELS 6 Xposition Yposition Zposition Zrotation Xrotation Yrotation
                      JOINT LeftHandIndex1
                      {
                        OFFSET -1.89232e-05 -8.30002 1.9
                        CHANNELS 6 Xposition Yposition Zposition Zrotation Xrotation Yrotation
                        JOINT LeftHandIndex2
                        {
                          OFFSET 3.7904e-05 -4.49999 0
                          CHANNELS 6 Xposition Yposition Zposition Zrotation Xrotation Yrotation
                          JOINT LeftHandIndex3
                          {
                            OFFSET 0 -3.4 0
                            CHANNELS 6 Xposition Yposition Zposition Zrotation Xrotation Yrotation
                            End Site
                            {
                              OFFSET 1.01851e-05 -2.60002 -1.4381e-05
                            }
                          }
                        }
                      }
                    }
                    JOINT LeftHandMiddle
                    {
                      OFFSET -0.249997 -2.2 0.399999
                      CHANNELS 6 Xposition Yposition Zposition Zrotation Xrotation Yrotation
                      JOINT LeftHandMiddle1
                      {
                        OFFSET 0 -8.30002 0.999997
                        CHANNELS 6 Xposition Yposition Zposition Zrotation Xrotation Yrotation
                        JOINT LeftHandMiddle2
                        {
                          OFFSET 0 -4.65001 0
                          CHANNELS 6 Xposition Yposition Zposition Zrotation Xrotation Yrotation
                          JOINT LeftHandMiddle3
                          {
                            OFFSET 0 -3.29998 0
                            CHANNELS 6 Xposition Yposition Zposition Zrotation Xrotation Yrotation
                            End Site
                            {
                              OFFSET -4.76544e-05 -2.7 0
                            }
                          }
                        }
                      }
                    }
                    JOINT LeftHandRing
                    {
                      OFFSET -0.499992 -2.15002 -0.799996
                      CHANNELS 6 Xposition Yposition Zposition Zrotation Xrotation Yrotation
                      JOINT LeftHandRing1
                      {
                        OFFSET -1.38721e-05 -7.74999 -0.200005
                        CHANNELS 6 Xposition Yposition Zposition Zrotation Xrotation Yrotation
                        JOINT LeftHandRing2
                        {
                          OFFSET 1.95605e-05 -3.8 0
                          CHANNELS 6 Xposition Yposition Zposition Zrotation Xrotation Yrotation
                          JOINT LeftHandRing3
                          {
                            OFFSET -1.93958e-05 -3.4 1.74981e-05
                            CHANNELS 6 Xposition Yposition Zposition Zrotation Xrotation Yrotation
                            End Site
                            {
                              OFFSET 1.22713e-05 -2.6 0
                            }
                          }
                        }
                      }
                    }
                    JOINT LeftHandPinky
                    {
                      OFFSET -0.74999 -1.75003 -1.85
                      CHANNELS 6 Xposition Yposition Zposition Zrotation Xrotation Yrotation
                      JOINT LeftHandPinky1
                      {
                        OFFSET -1.86846e-05 -7.14999 -0.999996
                        CHANNELS 6 Xposition Yposition Zposition Zrotation Xrotation Yrotation
                        JOINT LeftHandPinky2
                        {
                          OFFSET 0 -2.99999 0
                          CHANNELS 6 Xposition Yposition Zposition Zrotation Xrotation Yrotation
                          JOINT LeftHandPinky3
                          {
                            OFFSET 0 -2.34999 0
                            CHANNELS 6 Xposition Yposition Zposition Zrotation Xrotation Yrotation
                            End Site
                            {
                              OFFSET 4.2343e-05 -2.10002 1.25181e-05
                            }
                          }
                        }
                      }
                    }
                  }
                }
              }
            }
          }
          JOINT RightShoulder
          {
            OFFSET -5 17 0
            CHANNELS 6 Xposition Yposition Zposition Zrotation Xrotation Yrotation
            JOINT RightShoulder2
            {
              OFFSET -6.45 0 0
              CHANNELS 6 Xposition Yposition Zposition Zrotation Xrotation Yrotation
              JOINT RightArm
              {
                OFFSET -6.45 0 -1.01061e-05
                CHANNELS 6 Xposition Yposition Zposition Zrotation Xrotation Yrotation
                JOINT RightForeArm
                {
                  OFFSET 2.58642e-05 -32.4 -2.00002
                  CHANNELS 6 Xposition Yposition Zposition Zrotation Xrotation Yrotation
                  JOINT RightHand
                  {
                    OFFSET 0 -25.65 2.00001
                    CHANNELS 6 Xposition Yposition Zposition Zrotation Xrotation Yrotation
                    JOINT RightHandThumb1
                    {
                      OFFSET 0.49999 -1.50001 2.65
                      CHANNELS 6 Xposition Yposition Zposition Zrotation Xrotation Yrotation
                      JOINT RightHandThumb2
                      {
                        OFFSET 2.08497e-05 -3.79998 3.7
                        CHANNELS 6 Xposition Yposition Zposition Zrotation Xrotation Yrotation
                        JOINT RightHandThumb3
                        {
                          OFFSET 0 -3 2.7
                          CHANNELS 6 Xposition Yposition Zposition Zrotation Xrotation Yrotation
                          End Site
                          {
                            OFFSET -1.70338e-05 -2.30001 1.8
                          }
                        }
                      }
                    }
                    JOINT RightHandIndex
                    {
                      OFFSET 0 -1.89999 1.59999
                      CHANNELS 6 Xposition Yposition Zposition Zrotation Xrotation Yrotation
                      JOINT RightHandIndex1
                      {
                        OFFSET 1.93123e-05 -8.3 1.89996
                        CHANNELS 6 Xposition Yposition Zposition Zrotation Xrotation Yrotation
                        JOINT RightHandIndex2
                        {
                          OFFSET -1.69712e-05 -4.5 0
                          CHANNELS 6 Xposition Yposition Zposition Zrotation Xrotation Yrotation
                          JOINT RightHandIndex3
                          {
                            OFFSET 0 -3.4 0
                            CHANNELS 6 Xposition Yposition Zposition Zrotation Xrotation Yrotation
                            End Site
                            {
                              OFFSET 1.6702e-05 -2.6 0
                            }
                          }
                        }
                      }
                    }
                    JOINT RightHandMiddle
                    {
                      OFFSET 0.249994 -2.2 0.399998
                      CHANNELS 6 Xposition Yposition Zposition Zrotation Xrotation Yrotation
                      JOINT RightHandMiddle1
                      {
                        OFFSET 0 -8.29999 0.999997
                        CHANNELS 6 Xposition Yposition Zposition Zrotation Xrotation Yrotation
                        JOINT RightHandMiddle2
                        {
                          OFFSET 1.11605e-05 -4.64999 0
                          CHANNELS 6 Xposition Yposition Zposition Zrotation Xrotation Yrotation
                          JOINT RightHandMiddle3
                          {
                            OFFSET -2.09539e-05 -3.30002 1.83518e-05
                            CHANNELS 6 Xposition Yposition Zposition Zrotation Xrotation Yrotation
                            End Site
                            {
                              OFFSET 0 -2.69999 0
                            }
                          }
                        }
                      }
                    }
                    JOINT RightHandRing
                    {
                      OFFSET 0.499998 -2.15 -0.799993
                      CHANNELS 6 Xposition Yposition Zposition Zrotation Xrotation Yrotation
                      JOINT RightHandRing1
                      {
                        OFFSET 0 -7.75001 -0.200007
                        CHANNELS 6 Xposition Yposition Zposition Zrotation Xrotation Yrotation
                        JOINT RightHandRing2
                        {
                          OFFSET 0 -3.79998 0
                          CHANNELS 6 Xposition Yposition Zposition Zrotation Xrotation Yrotation
                          JOINT RightHandRing3
                          {
                            OFFSET 0 -3.40002 0
                            CHANNELS 6 Xposition Yposition Zposition Zrotation Xrotation Yrotation
                            End Site
                            {
                              OFFSET 0 -2.59998 0
                            }
                          }
                        }
                      }
                    }
                    JOINT RightHandPinky
                    {
                      OFFSET 0.750001 -1.74999 -1.85
                      CHANNELS 6 Xposition Yposition Zposition Zrotation Xrotation Yrotation
                      JOINT RightHandPinky1
                      {
                        OFFSET 0 -7.15 -0.999998
                        CHANNELS 6 Xposition Yposition Zposition Zrotation Xrotation Yrotation
                        JOINT RightHandPinky2
                        {
                          OFFSET 0 -3.00001 0
                          CHANNELS 6 Xposition Yposition Zposition Zrotation Xrotation Yrotation
                          JOINT RightHandPinky3
                          {
                            OFFSET 0 -2.35 0
                            CHANNELS 6 Xposition Yposition Zposition Zrotation Xrotation Yrotation
                            End Site
                            {
                              OFFSET 1.93502e-05 -2.09995 -4.24521e-05
                            }
                          }
                        }
                      }
                    }
                  }
                }
              }
            }
          }
        }
      }
    }
  }
  JOINT LeftUpLeg
  {
    OFFSET 8 0 0
    CHANNELS 6 Xposition Yposition Zposition Zrotation Xrotation Yrotation
    JOINT LeftLeg
    {
      OFFSET 0 -45 -1.00002
      CHANNELS 6 Xposition Yposition Zposition Zrotation Xrotation Yrotation
      JOINT LeftFoot
      {
        OFFSET 0 -41 -2.00002
        CHANNELS 6 Xposition Yposition Zposition Zrotation Xrotation Yrotation
        JOINT LeftToeBase
        {
          OFFSET -1.02505e-05 -7.5 12.5
          CHANNELS 6 Xposition Yposition Zposition Zrotation Xrotation Yrotation
          JOINT LeftFootToe
          {
            OFFSET 0 0 4
            CHANNELS 6 Xposition Yposition Zposition Zrotation Xrotation Yrotation
            End Site
            {
              OFFSET 0 0 0
            }
          }
        }
      }
    }
  }
  JOINT RightUpLeg
  {
    OFFSET -8 0 0
    CHANNELS 6 Xposition Yposition Zposition Zrotation Xrotation Yrotation
    JOINT RightLeg
    {
      OFFSET -1.57048e-05 -45.0001 -1.00001
      CHANNELS 6 Xposition Yposition Zposition Zrotation Xrotation Yrotation
      JOINT RightFoot
      {
        OFFSET -1.08581e-05 -41 -1.99998
        CHANNELS 6 Xposition Yposition Zposition Zrotation Xrotation Yrotation
        JOINT RightToeBase
        {
          OFFSET 0 -7.50001 12.5
          CHANNELS 6 Xposition Yposition Zposition Zrotation Xrotation Yrotation
          JOINT RightFootToe
          {
            OFFSET 0 0 4
            CHANNELS 6 Xposition Yposition Zposition Zrotation Xrotation Yrotation
            End Site
            {
              OFFSET 0 0 0
            }
          }
        }
      }
    }
  }
}
MOTION
Frames:	3
Frame Time:	0.0111111
-190.036 72.8889 509.856 -3.25127 12.887 170.649 1.42109e-14 8 0 4.5171 13.8698 -17.1006 0 8 1.13687e-13 -1.03665 8.64235 3.47205 -5.68434e-14 8 0 -0.454082 4.33619 1.7087 0 8 0 -0.452386 4.32193 1.70243 2.84217e-14 17 -1.13687e-13 -0.676314 -0.511403 -1.97335 -2.84217e-14 10.8 0 -1.60626 -1.15959 -4.6155 5 17 -1.13687e-13 -5.43794 -0.0746327 12.6428 6.45 1.42109e-14 0 -1.52672 0.81065 -1.82326 6.45 -5.68434e-14 0 53.1341 -44.6708 -6.47618 -2.84217e-14 -32.4 -2 -5.84071 -55.0985 1.6894 2.84217e-14 -25.65 2 -15.0545 -27.6795 -60.0092 -0.5 -1.5 2.65 5.90954 13.6987 9.18984 -2.84217e-14 -3.8 3.7 -0.0183021 30.2497 0.0239486 4.26326e-14 -3 2.7 -0.000985157 11.0109 -0.0154409 0 -1.9 1.6 -1.43452e-31 3.18055e-15 2.5842e-15 -2.4869e-14 -8.3 1.9 -11.2296 14.2088 1.56976 0 -4.5 0 -64.5597 0.0424823 -0.0107567 0 -3.4 2.84217e-14 -46.2252 0.0378805 0.0204898 -0.25 -2.2 0.4 -1.43452e-31 3.18055e-15 2.5842e-15 -2.84217e-14 -8.3 1 -7.85437 9.00486 0.784397 4.26326e-14 -4.65 -2.84217e-14 -43.6579 0.0205013 -0.0202281 0 -3.3 -2.84217e-14 -30.376 0.00613511 -0.00854232 -0.5 -2.15 -0.8 -1.43452e-31 3.18055e-15 2.5842e-15 7.10543e-15 -7.75 -0.2 -74.9457 5.76604 10.2937 1.13687e-13 -3.8 -5.68434e-14 -0.909223 -0.0179641 -0.00216496 -5.68434e-14 -3.4 -2.84217e-14 -0.868227 -0.00367519 -0.00223098 -0.75 -1.75 -1.85 -1.43452e-31 3.18055e-15 2.5842e-15 0 -7.15 -1 -72.3283 4.55535 10.3366 5.68434e-14 -3 -2.84217e-14 -6.13227 -0.0509203 0.0126158 -5.68434e-14 -2.35 0 -5.40699 -0.0434945 0.0104843 -5 17 -1.13687e-13 8.47295 -2.18788 6.99149 -6.45 7.10543e-15 1.13687e-13 -3.08088 1.62987 -1.50358 -6.45 4.26326e-14 0 -34.3321 -27.6235 11.5654 5.68434e-14 -32.4 -2 -13.7219 -9.79456 -59.5482 -5.68434e-14 -25.65 2 -11.3311 -5.67016 -6.15775 0.5 -1.5 2.65 10.5923 -4.02723 16.59 -2.84217e-14 -3.8 3.7 1.92158 2.49362 -0.542369 2.84217e-14 -3 2.7 0.288958 50.9477 -0.107814 0 -1.9 1.6 4.77083e-15 0 3.18055e-15 0 -8.3 1.9 0.204106 -1.65024 0.0881647 0 -4.5 5.68434e-14 88.3742 0.00560057 0.0089578 0 -3.4 2.84217e-14 84.6265 0.028596 0.0152938 0.25 -2.2 0.4 4.77083e-15 0 3.18055e-15 0 -8.3 1 1.8983 4.74043 -0.217825 0 -4.65 5.68434e-14 2.4488 0.0803806 0.0194213 0 -3.3 0 2.26684 0.0747675 0.0175304 0.5 -2.15 -0.8 4.77083e-15 0 3.18055e-15 -5.68434e-14 -7.75 -0.2 5.06857 15.5896 -1.30735 0 -3.8 0 0.000689284 0.0271289 0.0245754 0 -3.4 5.68434e-14 9.36599e-06 0.0267315 0.0239192 0.75 -1.75 -1.85 4.77083e-15 0 3.18055e-15 -5.68434e-14 -7.15 -1 7.16927 21.4856 -2.24069 5.68434e-14 -3 0 5.32522 0.097589 0.025146 -5.68434e-14 -2.35 0 4.65657 0.0861222 0.0157071 8 2.84217e-14 0 17.2316 -38.4314 14.2824 -2.84217e-14 -45 -1 1.01729 41.0818 -23.1323 0 -41 -2 -15.2532 5.83446 14.8275 0 -7.5 12.5 -9.2906e-08 1.26075e-06 3.39391e-07 2.84217e-14 0 4 4.6029 -12.3621 45.3326 -8 0 0 22.3307 -47.1114 27.6708 0 -45 -1 -32.7982 82.4989 38.0187 0 -41 -2 -4.94488 0.659145 20.9126 0 -7.5 12.5 -2.02123e-07 0.0170565 1.22233e-06 0 -1.42109e-14 4 -0.65749 0.886475 16.0937 
-190.071 72.8888 509.813 -3.17705 12.8084 170.582 -4.26326e-14 8 -5.68434e-14 4.47181 13.8195 -17.0892 0 8 0 -1.03873 8.62031 3.4744 2.84217e-14 8 0 -0.45532 4.32515 1.70821 2.84217e-14 8 0 -0.453612 4.31082 1.70251 -5.68434e-14 17 0 -0.680476 -0.563727 -1.94117 -2.84217e-14 10.8 0 -1.61918 -1.28237 -4.54151 5 17 0 -5.43485 -0.0800439 12.5824 6.45 0 0 -1.53235 0.803947 -1.81587 6.45 -5.68434e-14 0 53.0829 -44.4747 -6.39837 -2.84217e-14 -32.4 -2 -5.83557 -55.5655 1.54778 2.84217e-14 -25.65 2 -14.0369 -27.1158 -59.6373 -0.5 -1.5 2.65 6.30131 13.268 8.91761 -3.55271e-14 -3.8 3.7 -0.0193166 30.9287 0.0232151 3.55271e-14 -3 2.7 -0.00115879 10.6498 -0.0151161 1.42109e-14 -1.9 1.6 3.18055e-15 -3.18055e-15 1.98785e-16 -3.55271e-14 -8.3 1.9 -11.7701 14.5407 1.67723 0 -4.5 2.84217e-14 -63.9408 0.0415761 -0.0100561 5.68434e-14 -3.4 0 -45.6308 0.035574 0.0207331 -0.25 -2.2 0.4 3.18055e-15 -3.18055e-15 1.98785e-16 -2.13163e-14 -8.3 1 -8.03118 8.69591 0.757456 2.13163e-14 -4.65 2.84217e-14 -42.5059 0.0203744 -0.0153994 5.68434e-14 -3.3 0 -29.6444 0.00572656 -0.00683012 -0.5 -2.15 -0.8 3.18055e-15 -3.18055e-15 1.98785e-16 -3.55271e-15 -7.75 -0.2 -73.3752 5.73208 9.75758 -5.68434e-14 -3.8 -8.52651e-14 -1.75339 -0.0184662 -0.00581287 0 -3.4 0 -1.61821 -0.00318528 -0.00549734 -0.75 -1.75 -1.85 3.18055e-15 -3.18055e-15 1.98785e-16 1.42109e-14 -7.15 -1 -69.5192 5.00833 9.80864 5.68434e-14 -3 -2.84217e-14 -8.18163 -0.0662894 0.0197505 0 -2.35 0 -7.0307 -0.0551961 0.0129202 -5 17 0 8.49551 -2.24978 6.99804 -6.45 0 -1.13687e-13 -3.07521 1.63631 -1.51082 -6.45 2.84217e-14 1.13687e-13 -34.185 -27.2245 11.4013 2.84217e-14 -32.4 -2 -14.115 -10.9362 -59.8591 -5.68434e-14 -25.65 2 -9.82161 -5.66242 -7.19795 0.5 -1.5 2.65 10.0677 -3.62748 16.528 0 -3.8 3.7 1.8918 1.75521 -0.548391 2.84217e-14 -3 2.7 0.301964 52.2013 -0.118839 5.68434e-14 -1.9 1.6 -1.59028e-15 0 6.36111e-15 0 -8.3 1.9 0.173549 -0.661013 0.0959923 0 -4.5 2.84217e-14 88.5068 0.00527178 0.00971833 5.68434e-14 -3.4 0 85.0231 0.0355258 0.0181613 0.25 -2.2 0.4 -1.59028e-15 0 6.36111e-15 0 -8.3 1 2.11381 5.89259 -0.263839 0 -4.65 0 1.38214 0.0648455 0.0164731 0 -3.3 0 1.32135 0.061695 0.0200187 0.5 -2.15 -0.8 -1.59028e-15 0 6.36111e-15 0 -7.75 -0.2 5.5901 16.5164 -1.48754 -5.68434e-14 -3.8 0 0.000750478 0.029708 0.0268835 5.68434e-14 -3.4 5.68434e-14 5.87796e-06 0.0292785 0.0261624 0.75 -1.75 -1.85 -1.59028e-15 0 6.36111e-15 -5.68434e-14 -7.15 -1 8.00384 22.4996 -2.57151 0 -3 0 3.48325 0.091443 0.0279498 0 -2.35 0 3.12162 0.0823083 0.0199312 8 -2.84217e-14 -5.68434e-14 17.3079 -38.5341 14.2381 0 -45 -1 1.02357 41.2318 -23.1506 -2.84217e-14 -41 -2 -15.2566 5.76842 14.8775 -2.84217e-14 -7.5 12.5 -9.2906e-08 1.26075e-06 3.39391e-07 -2.84217e-14 0 4 4.61266 -12.385 45.3282 -8 0 -5.68434e-14 22.4281 -47.1475 27.6734 5.68434e-14 -45 -1 -32.8102 82.4638 38.0577 0 -41 -2 -4.97301 0.654375 20.9261 -1.13687e-13 -7.5 12.5 -2.02115e-07 0.0166842 1.22233e-06 -5.68434e-14 -1.42109e-14 4 -0.661081 0.891848 16.1041 
-190.104 72.8903 509.765 -3.10111 12.7281 170.509 0 8 0 4.42418 13.767 -17.0828 0 8 1.13687e-13 -1.04182 8.5974 3.47539 -2.84217e-14 8 0 -0.456124 4.31367 1.70807 -2.84217e-14 8 0 -0.454883 4.29932 1.70249 0 17 0 -0.684191 -0.61909 -1.90697 -2.84217e-14 10.8 0 -1.63213 -1.4112 -4.46283 5 17 0 -5.43099 -0.0853161 12.5209 6.45 1.42109e-14 0 -1.5341 0.796065 -1.80572 6.45 -2.84217e-14 0 53.0335 -44.2578 -6.28124 0 -32.4 -2 -5.88368 -56.0386 1.34668 2.84217e-14 -25.65 2 -12.9391 -26.5005 -59.2014 -0.5 -1.5 2.65 6.68728 12.9285 8.64268 -1.42109e-14 -3.8 3.7 -0.0199394 31.4763 0.0216772 1.42109e-14 -3 2.7 -0.00139814 10.2734 -0.0145635 0 -1.9 1.6 2.98177e-16 0 1.2921e-15 -3.55271e-14 -8.3 1.9 -12.2399 14.8591 1.77762 2.84217e-14 -4.5 -2.84217e-14 -63.3596 0.0328724 -0.00931276 0 -3.4 2.84217e-14 -45.0765 0.0278891 0.0161184 -0.25 -2.2 0.4 2.98177e-16 0 1.2921e-15 -1.42109e-14 -8.3 1 -8.17575 8.3494 0.730059 2.13163e-14 -4.65 0 -41.4877 0.017874 -0.0136254 0 -3.3 5.68434e-14 -29.008 0.00533688 -0.00619873 -0.5 -2.15 -0.8 2.98177e-16 0 1.2921e-15 1.06581e-14 -7.75 -0.2 -71.2433 5.69764 9.09187 0 -3.8 -5.68434e-14 -3.01706 -0.018996 -0.0120936 0 -3.4 -2.84217e-14 -2.72829 -0.00270549 -0.0110842 -0.75 -1.75 -1.85 2.98177e-16 0 1.2921e-15 -1.06581e-14 -7.15 -1 -66.1999 5.55396 9.24526 -5.68434e-14 -3 2.84217e-14 -10.6482 -0.077836 0.0329978 -5.68434e-14 -2.35 2.84217e-14 -8.95319 -0.0635828 0.0172938 -5 17 0 8.51657 -2.30951 7.00346 -6.45 1.42109e-14 0 -3.06816 1.64364 -1.5211 -6.45 1.42109e-14 0 -34.0106 -26.8385 11.2608 2.84217e-14 -32.4 -2 -14.5364 -12.1437 -60.2642 5.68434e-14 -25.65 2 -8.21127 -5.54635 -8.33592 0.5 -1.5 2.65 9.47808 -3.24064 16.4288 0 -3.8 3.7 1.85624 0.982436 -0.552676 -5.68434e-14 -3 2.7 0.306214 53.2281 -0.138429 5.68434e-14 -1.9 1.6 7.94503e-31 -7.15625e-15 6.36111e-15 0 -8.3 1.9 0.170739 0.290738 0.0975703 -5.68434e-14 -4.5 -2.84217e-14 88.5932 0.0049276 0.0109924 5.68434e-14 -3.4 2.84217e-14 85.2862 0.0376638 0.0202008 0.25 -2.2 0.4 7.94503e-31 -7.15625e-15 6.36111e-15 0 -8.3 1 2.3859 7.05095 -0.329669 0 -4.65 0 0.704068 0.0434184 0.0120465 5.68434e-14 -3.3 5.68434e-14 0.697982 0.0414845 0.0228053 0.5 -2.15 -0.8 7.94503e-31 -7.15625e-15 6.36111e-15 0 -7.75 -0.2 6.15939 17.4275 -1.69754 0 -3.8 0 0.000811219 0.032278 0.0291763 5.68434e-14 -3.4 -5.68434e-14 2.21344e-06 0.0318177 0.028383 0.75 -1.75 -1.85 7.94503e-31 -7.15625e-15 6.36111e-15 -5.68434e-14 -7.15 -1 8.93031 23.535 -2.96034 1.13687e-13 -3 0 2.04822 0.0659827 0.0237869 5.68434e-14 -2.35 0 1.87509 0.0601531 0.0184281 8 -2.84217e-14 0 17.391 -38.6343 14.1996 0 -45 -1 1.02955 41.3862 -23.1697 0 -41 -2 -15.2615 5.70706 14.9265 2.84217e-14 -7.5 12.5 -9.2906e-08 1.26075e-06 3.39391e-07 0 1.77636e-15 4 4.62808 -12.3913 45.3158 -8 0 0 22.5245 -47.1843 27.6745 0 -45 -1 -32.8187 82.425 38.0955 0 -41 -2 -5.00284 0.647597 20.9494 0 -7.5 12.5 -2.02107e-07 0.0163144 1.22233e-06 0 -1.42109e-14 4 -0.667099 0.897603 16.1137 
